<svg xmlns="http://www.w3.org/2000/svg" viewBox="0 0 1200 630" width="1200" height="630">
  <defs>
    <filter id="grain" x="0" y="0" width="1" height="1">
      <feTurbulence type="fractalNoise" baseFrequency="0.85" numOctaves="2" stitchTiles="stitch"/>
      <feColorMatrix values="0 0 0 0 0.10  0 0 0 0 0.085  0 0 0 0 0.07  0 0 0 0.18 0"/>
    </filter>
  </defs>
  <rect width="1200" height="630" fill="#f4ede1"/>
  <rect width="1200" height="630" filter="url(#grain)" opacity="0.55"/>
  <g stroke="rgba(26,22,18,0.045)" stroke-width="1">
    <line x1="0" y1="60" x2="1200" y2="60"/>
    <line x1="0" y1="120" x2="1200" y2="120"/>
    <line x1="0" y1="180" x2="1200" y2="180"/>
    <line x1="0" y1="240" x2="1200" y2="240"/>
    <line x1="0" y1="300" x2="1200" y2="300"/>
    <line x1="0" y1="360" x2="1200" y2="360"/>
    <line x1="0" y1="420" x2="1200" y2="420"/>
    <line x1="0" y1="480" x2="1200" y2="480"/>
    <line x1="0" y1="540" x2="1200" y2="540"/>
  </g>
  <line x1="170" y1="0" x2="170" y2="630" stroke="rgba(26,22,18,0.14)" stroke-width="1"/>
  <text x="80" y="78" font-family="JetBrains Mono, monospace" font-size="14" letter-spacing="2.4" fill="#9a8f7d" text-transform="uppercase">VOL. 04</text>
  <text x="80" y="98" font-family="JetBrains Mono, monospace" font-size="14" letter-spacing="2.4" fill="#9a8f7d">ISS. 26</text>
  <text x="200" y="78" font-family="JetBrains Mono, monospace" font-size="14" letter-spacing="2.4" fill="#1a1612" font-weight="500">ARPIT AGARWAL</text>
  <text x="200" y="98" font-family="JetBrains Mono, monospace" font-size="14" letter-spacing="2.4" fill="#9a8f7d">PERSONAL EDITION</text>
  <text x="200" y="290" font-family="Fraunces, Times New Roman, serif" font-size="180" font-weight="380" fill="#1a1612" letter-spacing="-6">Arpit</text>
  <text x="200" y="470" font-family="Fraunces, Times New Roman, serif" font-size="180" font-style="italic" font-weight="320" fill="#1a1612" letter-spacing="-6">Agarwal</text>
  <rect x="780" y="338" width="18" height="120" fill="#c83a2a"/>
  <text x="200" y="540" font-family="Newsreader, Georgia, serif" font-size="26" font-weight="380" fill="#2a2520">Software engineer — resilient backends,</text>
  <text x="200" y="572" font-family="Newsreader, Georgia, serif" font-size="26" font-style="italic" fill="#c83a2a">LLM agents</text>
  <text x="376" y="572" font-family="Newsreader, Georgia, serif" font-size="26" font-weight="380" fill="#2a2520">built with Claude and MCP.</text>
</svg>
